<svg width="76" height="52" viewBox="0 0 76 52" fill="none" xmlns="http://www.w3.org/2000/svg">
<path fill-rule="evenodd" clip-rule="evenodd" d="M5.3742 43.4784L8.89515 46.9993L11.0165 44.878L8.89515 46.9994C10.8478 48.952 14.0136 48.952 15.9662 46.9994L13.8449 44.878L15.9662 46.9993L16.3403 46.6253V47.0001C16.3403 49.7615 18.5789 52.0001 21.3403 52.0001H26.1174C28.8788 52.0001 31.1174 49.7615 31.1174 47.0001V45.6915L31.9583 46.5325C33.9109 48.4851 37.0767 48.4851 39.0294 46.5325L42.4569 43.1049C44.4096 41.1523 44.4096 37.9865 42.4569 36.0338L42.1762 35.7531H42.551C45.3125 35.7531 47.551 33.5146 47.551 30.7531V25.8827C47.551 23.1213 45.3125 20.8827 42.551 20.8827H41.4293L42.0834 20.2285C44.0361 18.2759 44.0361 15.1101 42.0835 13.1574L38.4691 9.54312L36.3478 11.6644L38.4691 9.54311C36.5165 7.5905 33.3507 7.59049 31.3981 9.54312L31.3041 9.63707V9.5424C31.3041 6.78098 29.0655 4.5424 26.3041 4.5424H21.2469C18.4855 4.5424 16.2469 6.78098 16.2469 9.5424V10.6642L15.5927 10.01C13.6401 8.05736 10.4743 8.05736 8.52166 10.01L5.00071 13.5309C3.04809 15.4835 3.04809 18.6494 5.00071 20.602L5.18804 20.7893H5C2.23857 20.7893 0 23.0279 0 25.7893V30.8465C0 33.6079 2.23858 35.8465 5 35.8465H5.93502L5.3742 36.4073C3.42159 38.36 3.42158 41.5258 5.3742 43.4784ZM36.3478 11.6644L39.9621 15.2788C40.7432 16.0598 40.7432 17.3261 39.9621 18.1072L37.2679 20.8014L38.6685 23.8827H42.551C43.6556 23.8827 44.551 24.7781 44.551 25.8827V30.7531C44.551 31.8577 43.6556 32.7531 42.551 32.7531H38.6685L37.548 35.3676L40.3356 38.1552C41.1167 38.9362 41.1167 40.2025 40.3356 40.9836L36.9081 44.4112C36.127 45.1922 34.8607 45.1922 34.0796 44.4112L31.3854 41.717L28.1174 43.1176V47.0001C28.1174 48.1046 27.2219 49.0001 26.1174 49.0001H21.3403C20.2357 49.0001 19.3403 48.1046 19.3403 47.0001V43.1176L16.7258 41.9971L13.8449 44.878C13.0638 45.6591 11.7975 45.6591 11.0165 44.878L7.49552 41.3571C6.71448 40.576 6.71448 39.3097 7.49553 38.5287L10.2831 35.7411L9.06925 32.8465H5C3.89543 32.8465 3 31.9511 3 30.8465V25.7893C3 24.6848 3.89543 23.7893 5 23.7893H9.06925L9.81624 21.1749L7.12203 18.4807C6.34098 17.6996 6.34098 16.4333 7.12203 15.6522L10.643 12.1313C11.424 11.3503 12.6904 11.3503 13.4714 12.1313L16.1656 14.8255L19.2469 13.4249V9.5424C19.2469 8.43783 20.1423 7.5424 21.2469 7.5424H26.3041C27.4087 7.5424 28.3041 8.43783 28.3041 9.5424V13.4249L30.7318 14.452L33.5194 11.6644C34.3004 10.8834 35.5668 10.8834 36.3478 11.6644ZM23.5578 38.4827C29.1029 38.4827 33.598 33.9876 33.598 28.4425C33.598 22.8974 29.1029 18.4023 23.5578 18.4023C18.0127 18.4023 13.5176 22.8974 13.5176 28.4425C13.5176 33.9876 18.0127 38.4827 23.5578 38.4827ZM30.598 28.4425C30.598 32.3307 27.446 35.4827 23.5578 35.4827C19.6696 35.4827 16.5176 32.3307 16.5176 28.4425C16.5176 24.5543 19.6696 21.4023 23.5578 21.4023C27.446 21.4023 30.598 24.5543 30.598 28.4425Z" fill="white"/>
<path d="M48.3612 13.7171L49.973 14.5311L49.9827 14.7766L48.2812 15.3362C47.2319 15.6812 46.661 16.8116 47.006 17.8609L48.0341 20.9871C48.3792 22.0364 49.5095 22.6073 50.5588 22.2623L52.3452 21.6748L52.6711 22.0503L51.8596 23.657C51.3616 24.6429 51.7572 25.8459 52.7432 26.3438L55.6401 27.807C56.6261 28.305 57.829 27.9094 58.327 26.9234L59.1707 25.253L59.4947 25.2813L60.0498 26.9694C60.3948 28.0187 61.5252 28.5896 62.5745 28.2445L65.5453 27.2676C66.5946 26.9225 67.1655 25.7922 66.8204 24.7429L66.2653 23.0548L66.8208 22.565L68.3535 23.3391C69.3395 23.8371 70.5424 23.4415 71.0404 22.4556L72.4688 19.6274C72.9667 18.6415 72.5712 17.4385 71.5852 16.9406L69.9836 16.1317L70.012 15.8077L71.7 15.2526C72.7493 14.9075 73.3202 13.7772 72.9751 12.7279L71.9812 9.70528C71.6361 8.65599 70.5058 8.08509 69.4565 8.43015L67.7537 8.9901L67.3199 8.51912L68.0868 7.00066C68.5848 6.0147 68.1892 4.81175 67.2032 4.31378L64.2374 2.81585C63.2515 2.31788 62.0485 2.71347 61.5505 3.69943L60.7401 5.30402L60.5373 5.28724L59.9832 3.60235C59.6382 2.55306 58.5078 1.98216 57.4585 2.32722L54.3323 3.35528C53.283 3.70034 52.7121 4.83068 53.0572 5.87997L53.6171 7.58274L53.1461 8.01656L51.6277 7.24964C50.6417 6.75167 49.4388 7.14726 48.9408 8.13321L47.4776 11.0302C46.9797 12.0161 47.3753 13.2191 48.3612 13.7171Z" stroke="white" stroke-width="2"/>
<circle cx="59.9006" cy="15.4292" r="5.11271" transform="rotate(-18.2033 59.9006 15.4292)" stroke="white" stroke-width="2"/>
</svg>
