<svg width="88" height="31" viewBox="0 0 88 31" fill="none" xmlns="http://www.w3.org/2000/svg">
<path d="M25.5309 24.75H22.9295H21.0714C18.31 24.75 16.0714 22.5114 16.0714 19.75V15.9362C16.0714 13.1748 18.31 10.9362 21.0714 10.9362H25.5309M38.7741 24.75H46.46H67.1525M79.9228 24.75H81.0714C83.8329 24.75 86.0714 22.5114 86.0714 19.75V15.9362C86.0714 13.1748 83.8329 10.9362 81.0714 10.9362H69.9904M69.9904 10.9362L61.7659 2.508C60.825 1.54373 59.5347 1 58.1874 1H46.46M69.9904 10.9362H46.46M25.5309 10.9362L31.13 3.09454C32.0685 1.78013 33.5841 1 35.1992 1H46.46M25.5309 10.9362H46.46M46.46 1V10.9362" stroke="white" stroke-width="2"/>
<circle cx="31.6957" cy="24.1251" r="5.875" stroke="white" stroke-width="2"/>
<path d="M78.8211 24.1251C78.8211 27.4616 76.383 30.0001 73.5711 30.0001C70.7591 30.0001 68.3211 27.4616 68.3211 24.1251C68.3211 20.7886 70.7591 18.2501 73.5711 18.2501C76.383 18.2501 78.8211 20.7886 78.8211 24.1251Z" stroke="white" stroke-width="2"/>
<path d="M13.3209 14.75L7.86842 14.75M11.8999 17.7593L1 17.7593M13.3209 21H5.5" stroke="white" stroke-width="2" stroke-linecap="round" stroke-linejoin="round"/>
</svg>
