<svg width="72" height="55" viewBox="0 0 72 55" fill="none" xmlns="http://www.w3.org/2000/svg">
<path d="M24.3703 0.285603C23.4562 0.636875 22.3875 1.57829 21.9094 2.47755C21.3609 3.48922 21.2344 4.50089 21.2344 7.95742V11.0908H12.5156C3.9375 11.0908 3.79688 11.0908 2.99531 11.3999C1.88437 11.8074 0.717187 12.9736 0.309375 14.0836C0.0140625 14.8564 0 15.1375 0 19.142C0 23.0622 0.028125 23.4135 0.267188 23.7928C0.61875 24.3127 1.19531 24.6781 1.85625 24.7905L2.39062 24.8888V37.7173C2.39062 50.9393 2.40469 51.4592 2.95312 52.5551C3.33281 53.2998 4.33125 54.2272 5.20312 54.6347L5.97656 55H36H66.0234L66.7969 54.6347C67.6687 54.2272 68.6672 53.2998 69.0469 52.5551C69.5953 51.4592 69.6094 50.9393 69.6094 37.7173V24.8888L70.1437 24.7905C70.8047 24.6781 71.3812 24.3127 71.7328 23.7928C71.9719 23.4135 72 23.0622 72 19.142C72 15.1375 71.9859 14.8564 71.6906 14.0836C71.2828 12.9736 70.1156 11.8074 69.0047 11.3999C68.2031 11.0908 68.0625 11.0908 59.4844 11.0908H50.7656V7.95742C50.7656 6.22916 50.6953 4.44468 50.6109 3.981C50.3016 2.32299 49.1062 0.847641 47.5875 0.285603C46.8281 -0.00946808 46.575 -0.00946808 35.9578 0.00458527C25.4531 0.00458527 25.0734 0.0186348 24.3703 0.285603ZM47.3484 2.74452C48.4172 3.61568 48.4453 3.71404 48.4875 7.60615L48.5437 11.0908H47.8266H47.1094V7.94337C47.1094 4.7538 47.0391 4.17772 46.575 3.84049C46.2234 3.57352 25.7766 3.57352 25.425 3.84049C24.9609 4.17772 24.8906 4.7538 24.8906 7.94337V11.0908H24.1734H23.4562L23.5125 7.60615C23.5547 3.88264 23.5969 3.68593 24.3562 2.98339C25.2 2.19653 24.6234 2.23869 36.1688 2.26679L46.8 2.30894L47.3484 2.74452ZM44.8594 8.49136V11.0908H36H27.1406V8.49136V5.89193H36H44.8594V8.49136ZM68.7234 13.8448C69.7641 14.6738 69.8203 14.9126 69.8203 18.9593V22.5423L64.3781 22.5845L58.9219 22.6126V21.7133C58.9219 19.7321 58.275 18.4535 57.1078 18.1022C56.7984 18.0179 55.4766 17.9757 53.6344 18.0038C50.7375 18.046 50.6672 18.0601 50.1609 18.3973C49.8516 18.594 49.4859 19.0436 49.2891 19.437C48.9937 20.0272 48.9375 20.3363 48.9375 21.3761V22.6126H36H23.0625V21.3761C23.0625 20.3363 23.0062 20.0272 22.7109 19.437C22.5141 19.0436 22.1484 18.594 21.8391 18.3973C21.3328 18.0601 21.2625 18.046 18.3656 18.0038C16.5234 17.9757 15.2016 18.0179 14.8922 18.1022C13.725 18.4535 13.0781 19.7321 13.0781 21.7133V22.6126L7.63594 22.5845L2.17969 22.5423L2.1375 19.3808C2.09531 15.7979 2.20781 14.9548 2.82656 14.2663C3.69844 13.2546 0.632812 13.3389 36.1688 13.3811L68.175 13.4092L68.7234 13.8448ZM20.7281 20.4487C20.7703 20.5752 20.8125 22.5423 20.8125 24.8467C20.8125 27.9098 20.7703 29.0619 20.6437 29.1884C20.5312 29.3008 19.7437 29.357 18.0422 29.357C15.7922 29.357 15.6094 29.343 15.4688 29.09C15.3844 28.9214 15.3281 27.2915 15.3281 24.7905C15.3281 22.2894 15.3844 20.6595 15.4688 20.4909C15.6094 20.2379 15.7922 20.2239 18.1266 20.2239C20.2922 20.2239 20.6578 20.252 20.7281 20.4487ZM56.5312 20.4909C56.6156 20.6595 56.6719 22.2894 56.6719 24.7905C56.6719 27.2915 56.6156 28.9214 56.5312 29.09C56.3906 29.343 56.2078 29.357 53.9578 29.357C52.2562 29.357 51.4688 29.3008 51.3562 29.1884C51.2297 29.0619 51.1875 27.9098 51.1875 24.8467C51.1875 22.5423 51.2297 20.5752 51.2719 20.4487C51.3422 20.252 51.7078 20.2239 53.8734 20.2239C56.2078 20.2239 56.3906 20.2379 56.5312 20.4909ZM13.1062 27.2072C13.1625 29.891 13.2891 30.3406 14.2453 31.0993L14.7937 31.5349H18.0562C21.3047 31.5349 21.3328 31.5349 21.8391 31.1836C22.1484 30.9729 22.5141 30.5373 22.7109 30.1439C23.0484 29.4835 23.0625 29.3149 23.0625 27.151V24.8607H36H48.9375V27.151C48.9375 29.3149 48.9516 29.4835 49.2891 30.1439C49.4859 30.5373 49.8516 30.9729 50.1609 31.1836C50.6672 31.5349 50.6953 31.5349 53.9437 31.5349H57.2062L57.7547 31.0993C58.7109 30.3406 58.8375 29.891 58.8937 27.2072L58.95 24.8607H63.1547H67.3594L67.3312 37.9702L67.2891 51.0938L66.8812 51.6699C66.6562 51.9931 66.2344 52.3725 65.8969 52.5411C65.3063 52.8221 65.1797 52.8221 36 52.8221C6.82031 52.8221 6.69375 52.8221 6.10312 52.5411C5.76562 52.3725 5.34375 51.9931 5.11875 51.6699L4.71094 51.0938L4.66875 37.9702L4.64062 24.8607H8.84531H13.05L13.1062 27.2072Z" fill="white"/>
</svg>
