<svg width="72" height="72" viewBox="0 0 72 72" fill="none" xmlns="http://www.w3.org/2000/svg">
<path d="M12.0704 43.0203V40.4163L17.5724 35.2713C17.9644 34.9073 18.2514 34.5853 18.4334 34.3053C18.6294 34.0253 18.7554 33.7733 18.8114 33.5493C18.8814 33.3113 18.9164 33.0943 18.9164 32.8983C18.9164 32.4223 18.7554 32.0513 18.4334 31.7853C18.1254 31.5193 17.6564 31.3863 17.0264 31.3863C16.4944 31.3863 15.9974 31.5053 15.5354 31.7433C15.0734 31.9813 14.6954 32.3383 14.4014 32.8143L11.3144 31.0923C11.8604 30.1683 12.6514 29.4263 13.6874 28.8663C14.7234 28.3063 15.9624 28.0263 17.4044 28.0263C18.5384 28.0263 19.5324 28.2083 20.3864 28.5723C21.2404 28.9363 21.9054 29.4543 22.3814 30.1263C22.8714 30.7983 23.1164 31.5893 23.1164 32.4993C23.1164 32.9753 23.0534 33.4513 22.9274 33.9273C22.8014 34.3893 22.5564 34.8863 22.1924 35.4183C21.8424 35.9363 21.3174 36.5173 20.6174 37.1613L16.2494 41.1933L15.5564 39.7233H23.5154V43.0203H12.0704ZM24.4557 40.2063V37.4973L31.0497 28.3203H35.3547L28.9497 37.4973L26.9757 36.9093H38.4627V40.2063H24.4557ZM32.2257 43.0203V40.2063L32.3517 36.9093V34.4103H36.2787V43.0203H32.2257ZM38.2875 45.1203L45.2175 25.3383H48.7665L41.8365 45.1203H38.2875ZM50.7818 43.0203L56.5148 29.8533L57.6278 31.6173H50.1728L51.8738 29.7063V33.8853H48.3248V28.3203H60.5048V30.9243L55.3178 43.0203H50.7818Z" fill="white"/>
<path d="M8.44036 55.0202C-2.62247 40.1558 1.1187 20.203 15.4411 9.02043C29.6537 -2.07645 47.941 0.520576 61.4404 13.0202M61.4404 13.0202V2.02036M61.4404 13.0202H50.44" stroke="white" stroke-width="3"/>
<path d="M64.4405 17.0201C75.5033 31.8845 71.7622 51.8373 57.4398 63.0199C43.2272 74.1167 24.9398 71.5197 11.4405 59.0201M11.4405 59.0201V70.0202M11.4405 59.0201H22.4408" stroke="white" stroke-width="3"/>
</svg>
