<svg width="81" height="64" viewBox="0 0 81 64" fill="none" xmlns="http://www.w3.org/2000/svg">
<path fill-rule="evenodd" clip-rule="evenodd" d="M55.1806 38.4433L40.1321 38.4433L40.1321 35.4433L55.1806 35.4433C56.5426 35.4433 57.3808 35.1452 57.9016 34.8102C58.4173 34.4783 58.7289 34.0416 58.9245 33.5745C59.0248 33.335 59.0935 33.0892 59.1391 32.8524L58.0305 31.3742C57.9943 31.3509 57.9408 31.3192 57.8678 31.2829C57.5508 31.1251 56.7494 30.8218 55.2073 30.8355L55.1858 30.8357L55.1642 30.8356C51.9869 30.8182 47.9364 30.8182 44.6758 30.8225C43.0465 30.8247 41.6161 30.828 40.5932 30.8307C40.0817 30.8321 39.6721 30.8333 39.3905 30.8342L39.0673 30.8352L38.9838 30.8355L38.9626 30.8356L38.9573 30.8356L38.956 30.8356L38.9557 30.8356L38.945 27.8356C38.945 27.8356 48.8046 27.8007 55.1806 27.8356C58.5052 27.806 59.8646 28.941 60.2008 29.2863C60.2609 29.3482 60.2883 29.3847 60.2883 29.3847L62.5298 27.3888L71.8113 19.1239C71.8113 19.1239 75.336 15.525 78.9391 19.1239C82.0197 22.201 78.9391 25.4598 78.9391 25.4598C78.9391 25.4598 70.1347 36.3081 62.1945 44.8771C61.2609 45.8846 59.947 46.4472 58.5734 46.4472L34.9492 46.4472C34.9492 46.4472 33.1421 46.2013 31.0783 47.8024C30.7633 48.0467 30.4424 48.3341 30.121 48.6719C31.0063 52.0466 30.0972 55.7881 27.4159 58.3921L24.2777 61.4399C22.2968 63.3638 19.1313 63.3175 17.2074 61.3366L1.41319 45.0739C-0.510695 43.0929 -0.464437 39.9274 1.51651 38.0036L4.65467 34.9558C7.63984 32.0566 11.97 31.3944 15.5695 32.9389C19.1213 27.6606 27.2034 21.4057 38.945 27.8356L38.9556 30.8356L38.1823 30.8383L37.5041 30.4669C31.6595 27.2663 27.2076 27.7664 23.9821 29.3355C21.4052 30.5891 19.4131 32.6287 18.1197 34.5224L18.1476 34.5515C18.3703 34.7437 18.5864 34.9474 18.7953 35.1624L27.6225 44.2515C27.8329 44.4682 28.0316 44.6919 28.2184 44.9219C28.4619 45.1687 28.7063 45.416 28.9513 45.6635C29.9997 44.7921 31.0614 44.2347 32.044 43.8954C32.8961 43.6012 33.6456 43.4856 34.2176 43.4486C34.5035 43.4301 34.7464 43.431 34.9376 43.4393C34.9882 43.4415 35.0353 43.4442 35.0788 43.4472L58.5734 43.4472V46.4369L58.5734 43.4472C59.1284 43.4472 59.6394 43.2207 59.994 42.838C63.9185 38.6027 68.0708 33.7883 71.252 30.0199C72.8402 28.1385 74.1815 26.5235 75.1252 25.3796C75.597 24.8078 75.9691 24.3539 76.2229 24.0436C76.3498 23.8884 76.447 23.7692 76.5123 23.6891L76.5859 23.5986L76.6041 23.5762L76.6085 23.5708L76.6095 23.5695L76.6097 23.5693L76.6811 23.4813L76.7344 23.425L76.7483 23.4083C76.7774 23.3729 76.8299 23.3062 76.8923 23.2145C77.0249 23.0196 77.1583 22.7766 77.2379 22.5286C77.3146 22.29 77.3199 22.1175 77.2945 21.988C77.2746 21.8861 77.2044 21.6314 76.819 21.2465C76.2847 20.7128 75.9042 20.5851 75.7127 20.5465C75.5012 20.5039 75.2664 20.5212 74.9842 20.6165C74.6884 20.7165 74.4059 20.8819 74.1824 21.0443C74.0766 21.1213 73.999 21.1867 73.9562 21.2244C73.9448 21.2345 73.9362 21.2423 73.9306 21.2475L73.8828 21.2963L73.8063 21.3644L62.2834 31.6252L62.2142 31.6868C62.2212 31.8578 62.2234 32.0641 62.214 32.2966C62.1884 32.9344 62.0737 33.8212 61.6917 34.7334C61.3032 35.661 60.6348 36.6189 59.5247 37.3331C58.4196 38.0441 56.9861 38.4433 55.1806 38.4433ZM6.74477 37.1079C9.33549 34.5918 13.3734 34.4827 16.0896 36.74C18.1783 38.9213 21.9469 42.836 25.9706 46.9151C28.1433 49.6959 27.9149 53.7255 25.3258 56.2401L22.1876 59.2878C21.3953 60.0574 20.1291 60.0389 19.3595 59.2465L3.56528 42.9838C2.79572 42.1914 2.81423 40.9252 3.6066 40.1557L6.74477 37.1079ZM11.7885 41.6603C12.882 41.6603 13.7685 40.7739 13.7685 39.6804C13.7685 38.5869 12.882 37.7004 11.7885 37.7004C10.695 37.7004 9.80859 38.5869 9.80859 39.6804C9.80859 40.7739 10.695 41.6603 11.7885 41.6603Z" fill="white"/>
<path d="M51.0003 23.8334C56.9834 23.8334 61.8337 18.9832 61.8337 13.0001C61.8337 7.017 56.9834 2.16675 51.0003 2.16675C45.0172 2.16675 40.167 7.017 40.167 13.0001C40.167 18.9832 45.0172 23.8334 51.0003 23.8334Z" fill="white" stroke="white" stroke-width="2" stroke-linecap="round" stroke-linejoin="round"/>
<mask id="mask0_42_2" style="mask-type:alpha" maskUnits="userSpaceOnUse" x="40" y="2" width="22" height="22">
<path d="M51.0003 23.8334C56.9834 23.8334 61.8337 18.9832 61.8337 13.0001C61.8337 7.017 56.9834 2.16675 51.0003 2.16675C45.0172 2.16675 40.167 7.017 40.167 13.0001C40.167 18.9832 45.0172 23.8334 51.0003 23.8334Z" fill="#FF0000"/>
</mask>
<g mask="url(#mask0_42_2)">
<path fill-rule="evenodd" clip-rule="evenodd" d="M52 6C52 5.44772 51.5523 5 51 5C50.4477 5 50 5.44772 50 6V6.95142H49.4962C47.7426 6.95142 46.3945 8.42807 46.3945 10.1506C46.3945 10.9545 46.5704 11.6448 47.0016 12.1948C47.4234 12.733 47.9904 13.0067 48.4905 13.184L48.4905 13.184L48.4964 13.186L52.8591 14.7016C53.2128 14.8273 53.3603 14.9378 53.4393 15.0386C53.5092 15.1277 53.6204 15.3312 53.6204 15.8489C53.6204 16.5531 53.0834 17.0481 52.5187 17.0481H49.7995C49.0646 17.0481 48.3945 16.4155 48.3945 15.5239C48.3945 14.9716 47.9468 14.5239 47.3945 14.5239C46.8422 14.5239 46.3945 14.9716 46.3945 15.5239C46.3945 17.4273 47.8695 19.0481 49.7995 19.0481H50V20C50 20.5523 50.4477 21 51 21C51.5523 21 52 20.5523 52 20V19.0481H52.5187C54.2723 19.0481 55.6204 17.5714 55.6204 15.8489C55.6204 15.045 55.4444 14.3547 55.0133 13.8047C54.5915 13.2665 54.0245 12.9928 53.5244 12.8155L53.5244 12.8155L53.5185 12.8135L49.1558 11.2979C48.8021 11.1722 48.6546 11.0617 48.5756 10.9609C48.5057 10.8718 48.3945 10.6683 48.3945 10.1506C48.3945 9.44643 48.9315 8.95142 49.4962 8.95142H52.2154C52.9503 8.95142 53.6204 9.58397 53.6204 10.4756C53.6204 11.0279 54.0681 11.4756 54.6204 11.4756C55.1726 11.4756 55.6204 11.0279 55.6204 10.4756C55.6204 8.57219 54.1454 6.95142 52.2154 6.95142H52V6Z" fill="#FF0000"/>
</g>
<mask id="mask1_42_2" style="mask-type:alpha" maskUnits="userSpaceOnUse" x="14" y="17" width="67" height="34">
<path d="M38.4649 28.7126L38.691 28.8364L38.9487 28.8355L38.9452 27.8355C38.9487 28.8355 38.9488 28.8355 38.9489 28.8355L38.9492 28.8355L38.9505 28.8355L38.9559 28.8355L38.9771 28.8354L39.0608 28.8351L39.3845 28.8341C39.6664 28.8332 40.0763 28.8319 40.5881 28.8306C41.6117 28.8279 43.0429 28.8246 44.6734 28.8224C47.9348 28.818 51.9909 28.8181 55.1754 28.8355L55.1825 28.8355L55.1897 28.8354C57.0103 28.8192 58.1288 29.1785 58.7591 29.4922C59.0763 29.6501 59.2787 29.8007 59.3909 29.8969C59.4473 29.9452 59.4817 29.9805 59.4969 29.9969C59.4988 29.9989 59.5004 30.0006 59.5017 30.0021L60.1412 30.8548L60.9536 30.1314L72.4765 19.8706L72.502 19.8479L72.5228 19.8266L72.5238 19.8257L72.5246 19.8249L72.5424 19.8077C72.5604 19.7904 72.5906 19.7622 72.6321 19.7256C72.7153 19.6521 72.8424 19.5459 73.0065 19.4266C73.3389 19.185 73.8018 18.9049 74.3443 18.7216C74.8822 18.5399 75.4794 18.4591 76.108 18.5858C76.7299 18.7112 77.454 19.0536 78.2326 19.8313C78.8745 20.4725 79.1546 21.0778 79.2575 21.6039C79.3623 22.1392 79.2963 22.6606 79.1424 23.1399C78.9875 23.6224 78.7505 24.039 78.5458 24.3397C78.4448 24.4882 78.3551 24.6033 78.2933 24.6785C78.2625 24.716 78.2389 24.7431 78.2246 24.7592L78.212 24.7734L78.2114 24.7739L78.2107 24.7747L78.2106 24.7749L78.2096 24.776L78.1867 24.8002L78.1628 24.8295L78.9393 25.4597C78.1628 24.8295 78.1628 24.8295 78.1628 24.8296L78.1625 24.8299L78.1614 24.8313L78.1567 24.8371L78.1379 24.8602L78.0631 24.952C77.9971 25.0331 77.8991 25.1533 77.7714 25.3095C77.5159 25.6219 77.1419 26.078 76.6682 26.6522C75.7206 27.8008 74.3744 29.4217 72.7805 31.3099C69.591 35.0882 65.4161 39.9292 61.4612 44.1973C60.7206 44.9966 59.6744 45.4471 58.5736 45.4471L58.5736 46.4471L58.5736 45.4471L35.0011 45.4471C34.9624 45.4436 34.9122 45.44 34.8513 45.4373C34.7262 45.4319 34.5556 45.4308 34.3471 45.4443C33.9299 45.4713 33.3591 45.5571 32.6971 45.7857C31.5717 46.1743 30.2262 46.9608 28.9417 48.4922C25.6294 45.1664 22.3094 41.7548 19.7526 39.1064C18.3702 37.6745 17.2115 36.4662 16.3984 35.6161C16.08 35.2831 15.8147 35.0051 15.6097 34.7901C16.9621 32.3244 19.512 29.2859 23.1074 27.5369C26.9457 25.6697 32.0816 25.217 38.4649 28.7126Z" fill="#FF0000" stroke="black" stroke-width="2"/>
</mask>
<g mask="url(#mask1_42_2)">
</g>
</svg>
