<svg width="70" height="70" viewBox="0 0 70 70" fill="none" xmlns="http://www.w3.org/2000/svg">
<path d="M11.0243 0.0501938C8.35914 0.460228 7.14272 1.74498 7.90811 3.35775C8.03112 3.61744 9.52088 5.20288 11.2293 6.89766C14.7419 10.3556 15.1109 10.8476 15.1109 12.2007C15.1109 14.4422 12.8148 15.8089 10.7783 14.7839C10.546 14.6609 8.86484 13.1028 7.06072 11.3123C5.25659 9.52184 3.63015 7.99107 3.45247 7.8954C2.9331 7.63571 1.82603 7.67672 1.40233 7.99107C-0.114772 9.12548 -0.483797 13.8271 0.705284 17.039C2.19505 21.03 5.61195 23.9275 9.84891 24.7749C11.4207 25.1029 13.9902 25.0072 15.5893 24.5699L16.7237 24.2555L18.4185 25.9503L20.1133 27.6451L19.8946 28.3968C19.7852 28.8068 19.6349 30.0642 19.5802 31.1987C19.4572 33.3308 19.3479 33.7682 18.6372 35.1759C17.8991 36.6384 16.5734 38.2511 13.7852 41.0667C11.1883 43.7045 11.0517 43.8138 10.6963 43.6772C10.1496 43.4722 8.74183 43.5132 8.14046 43.7728C7.47075 44.0462 1.63468 49.8139 1.21099 50.6066C0.800957 51.3994 0.800957 52.8618 1.23832 53.6682C1.70302 54.5566 16.505 69.2219 17.3524 69.6456C18.1588 70.042 19.4709 70.001 20.3183 69.5636C20.6326 69.4133 22.2044 67.9372 23.9539 66.1604C26.4824 63.6045 27.0564 62.9485 27.1931 62.4838C27.3981 61.8004 27.3981 60.8847 27.2204 60.2423L27.0837 59.7639L30.5416 56.306C32.4278 54.4062 34.3002 52.6294 34.6966 52.3561L35.4073 51.8641L36.5417 51.9597C39.6306 52.2057 39.986 52.2057 40.7377 52.0417C41.1614 51.9461 41.9541 51.6864 42.5145 51.4677L43.5122 51.044L44.6056 52.1511L45.7127 53.2445L45.3983 54.3789C45.084 55.5543 45.3393 61.5835 45.8767 62.6751C46.4413 62.3131 47.1584 61.8293 47.7081 61.445C47.3702 59.9918 47.1341 58.5065 47.2161 57.0167C47.2708 55.9643 47.3801 55.3493 47.7081 54.4062C47.9405 53.7229 48.1318 53.0258 48.1318 52.8345C48.1318 52.5748 46.2867 50.6613 39.8083 44.1965L31.4847 35.8866L31.7991 35.1759C32.0588 34.5609 32.2091 34.0415 32.5371 32.6064L32.6191 32.2374L33.2342 32.6611C34.1636 33.2898 35.954 34.1099 36.9381 34.3422C37.4164 34.4515 38.3185 34.5472 38.9336 34.5472H40.0543L40.2046 35.3263C40.601 37.2807 42.1181 38.7842 44.0316 39.1259L44.5099 39.2079V40.3969C44.5099 41.3673 44.5646 41.709 44.8243 42.2421C45.535 43.6635 47.0521 44.6612 48.5145 44.6612C49.1432 44.6612 49.1569 44.6749 50.8244 46.3287C52.7515 48.2558 52.7788 48.2558 54.5283 47.6271C58.2185 46.2877 62.4828 47.3674 65.23 50.3743C66.1731 51.3994 66.8018 52.4518 67.3075 53.8595C67.6492 54.8026 67.7312 55.24 67.7859 56.6204C67.8405 58.1785 67.6628 59.8323 67.4305 59.8323C67.3758 59.8323 66.1457 58.6022 64.697 57.1124C61.6491 53.9415 60.788 53.2582 59.4486 52.8481C57.5898 52.2741 55.3483 52.7661 54.1183 53.9962C53.0522 55.0623 52.4918 56.9621 52.7788 58.5885C53.0795 60.3106 53.4622 60.83 56.9201 64.2196L60.0773 67.3084L59.3256 67.4998C58.1639 67.8005 55.9224 67.7321 54.6376 67.3631C52.1911 66.6797 50.1683 65.19 48.7332 63.0168C48.2819 62.3334 48.0635 62.1284 47.7081 61.445C47.1584 61.8293 46.4413 62.3131 45.8767 62.6751C46.7714 64.8974 48.8699 66.9804 50.9337 68.1968C53.5852 69.7549 56.9884 70.3016 59.8996 69.6183C61.4167 69.2629 62.3461 68.4429 62.3461 67.4315C62.3461 66.5977 61.8951 66.0237 58.6696 62.7708C56.8654 60.9667 55.3073 59.2992 55.198 59.0806C54.7333 58.1102 54.8153 56.7844 55.4167 55.9097C56.0317 55.0076 57.4805 54.5702 58.7516 54.9119C59.3393 55.0759 59.7493 55.4313 62.7562 58.3972C64.6013 60.2286 66.2961 61.8141 66.5421 61.9371C67.0888 62.2104 67.9772 62.2241 68.4966 61.9507C69.4396 61.4587 70 59.7093 70 57.1944C70 54.6659 69.4806 52.7525 68.1959 50.5656C67.6082 49.5679 65.3667 47.3264 64.3689 46.7387C62.1685 45.4403 60.2003 44.9072 57.6308 44.9209C56.3324 44.9209 55.7174 44.9893 54.624 45.2626L53.2572 45.618L52.3688 44.7296L51.4804 43.8412L54.3779 40.9437C56.1957 39.1122 57.3711 37.8001 57.5762 37.4174C57.9998 36.57 58.0955 34.9709 57.7675 34.0142C57.3028 32.5928 55.854 31.431 54.2549 31.1987C53.6262 31.103 53.5989 31.0756 53.5989 30.6656C53.5989 29.9549 53.2572 28.7385 52.8745 28.0824C52.2458 27.0164 50.9064 26.0733 49.7036 25.882L49.1569 25.7863L49.1979 24.5972C49.2389 23.6405 49.1979 23.2578 48.9519 22.6291C48.5965 21.686 47.7081 20.6473 46.8061 20.1689C46.15 19.8135 44.5646 19.4309 44.2366 19.5675C44.1136 19.6085 44.0452 19.3762 43.9906 18.7201C43.8676 16.9707 42.8562 15.5219 41.257 14.7839C40.5327 14.4422 40.232 14.3875 39.2479 14.3875C37.4711 14.3875 36.8834 14.7155 34.5873 16.998L32.7421 18.8431L32.4688 18.5425C31.8537 17.8454 30.528 17.5584 29.3799 17.8864C29.0792 17.9684 28.5188 18.3374 28.0268 18.7885L27.2068 19.5539L25.758 18.1188L24.3092 16.67L24.6236 15.5356C25.0063 14.1005 25.1429 11.7223 24.9106 10.2736C24.1315 5.46256 20.6326 1.6083 15.9447 0.364548C14.8786 0.0775299 12.0221 -0.100143 11.0243 0.0501938ZM15.398 2.4967C17.9128 3.18008 20.2773 5.0252 21.5894 7.32135C22.9971 9.79519 23.2432 13.4854 22.1634 15.9183C21.644 17.1074 21.685 17.1757 23.7625 19.2668L25.6486 21.153L23.4345 23.3671L21.2067 25.5813L19.3206 23.7088C17.2157 21.6313 17.1474 21.5903 15.9857 22.1097C15.0563 22.5197 13.5392 22.7931 12.2134 22.7931C7.90811 22.7931 3.98551 19.9502 2.65975 15.8636C2.40007 15.0572 2.29073 14.4012 2.23606 13.2258C2.18138 11.7497 2.37273 10.0822 2.59141 10.0822C2.64608 10.0822 4.09485 11.49 5.83063 13.2121C9.23386 16.588 9.65756 16.9023 11.2703 17.203C12.9241 17.5037 14.8376 16.957 15.9173 15.8636C16.9697 14.8249 17.5164 12.9387 17.2431 11.326C16.9561 9.61752 16.669 9.20749 13.2521 5.76325C11.448 3.94546 10.1769 2.55137 10.2589 2.51036C10.8876 2.11401 13.9765 2.11401 15.398 2.4967ZM40.1773 16.711C40.847 16.998 41.2844 17.4217 41.5851 18.0778C42.1864 19.3899 41.8858 20.0732 39.6853 22.2874L37.9495 24.0232L36.1454 22.219L34.3276 20.4013L36.0087 18.7201C38.1545 16.5333 38.8926 16.178 40.1773 16.711ZM36.159 25.3763L41.5987 30.8296L41.1614 31.39C40.1226 32.6748 38.0862 32.7021 35.5577 31.4583C34.7103 31.0346 34.2046 30.6246 32.6875 29.1485C31.6761 28.1508 30.7057 27.2624 30.528 27.1804C30.118 26.9617 29.4619 27.112 29.2022 27.4811C28.8742 27.9458 28.9562 28.4378 29.4756 29.1622C30.0223 29.9276 30.364 30.9116 30.364 31.7454C30.364 33.1395 29.5439 35.0666 28.3685 36.4607C27.7671 37.1851 27.6304 37.4311 27.6304 37.8411C27.6304 38.2375 27.7125 38.4288 27.9858 38.6338C28.5872 39.1122 29.1612 38.9618 29.8446 38.1828L30.2136 37.7591L35.954 43.4995C39.1249 46.6567 41.7081 49.2809 41.7081 49.3356C41.7081 49.3766 41.4211 49.5406 41.0657 49.6772C40.3413 49.9506 39.2889 49.9779 36.6237 49.7866L35.0109 49.6772L34.0952 50.1283C33.2888 50.5246 32.6738 51.0713 29.3662 54.3516L25.5666 58.1102L22.8741 55.4176C20.5643 53.1078 19.9547 52.5474 19.9547 52.5474L18.7465 54.2559C18.7465 54.2559 20.3183 55.9917 22.0404 57.7138C24.8969 60.5977 25.1703 60.912 25.1703 61.3357C25.1703 61.7731 24.9106 62.0601 22.1907 64.7799C19.4572 67.5135 19.1839 67.7595 18.7465 67.7595C18.2955 67.7595 17.7898 67.2811 10.628 60.1193C3.04244 52.5338 2.98777 52.4791 3.08345 52.0144C3.15178 51.659 3.76683 50.962 5.93997 48.7888C7.45708 47.2581 8.87851 45.9187 9.11086 45.823C9.38421 45.7 9.61656 45.6863 9.86257 45.782C10.0539 45.8503 13.0198 48.7068 13.0198 48.7068L18.7465 54.2559L19.9547 52.5474L15.0563 47.5998L12.7464 45.2899L15.5073 42.4744C19.1702 38.7568 20.496 36.9527 21.2887 34.6156C21.5894 33.7272 21.6714 33.1531 21.7534 31.472C21.9311 28.0688 22.0541 27.8774 26.5644 23.3671C29.2296 20.7156 30.118 19.9229 30.3776 19.9229C30.6373 19.9229 31.9084 21.1256 36.159 25.3763ZM45.6717 22.0414C46.1364 22.2874 46.7241 22.9161 46.8881 23.3808C47.0794 23.8728 47.0794 24.8569 46.8881 25.3489C46.8198 25.5539 45.945 26.538 44.9746 27.5221L43.1842 29.3125L41.3664 27.4537L39.5349 25.5949L40.0406 25.0756C41.3527 23.7088 43.2662 22.055 43.7309 21.891C44.2776 21.686 45.1113 21.7543 45.6717 22.0414ZM49.854 28.2465C50.4963 28.5335 51.0294 29.1758 51.2754 29.9412C51.3984 30.3513 51.3984 30.6109 51.2617 31.1713C51.1114 31.8274 50.9337 32.046 48.8426 34.1782C47.4758 35.5586 46.3551 36.57 46.0134 36.734C44.0589 37.6771 41.8858 35.8866 42.4051 33.7682C42.5555 33.1805 42.8152 32.8661 44.8243 30.8296C46.15 29.4902 47.3118 28.4241 47.6398 28.2601C48.3369 27.9184 49.1159 27.9184 49.854 28.2465ZM54.8153 33.6998C55.7037 34.3559 56.0454 35.5586 55.5944 36.4333C55.2527 37.0621 49.8813 42.3104 49.4576 42.4197C48.8836 42.5564 47.9405 42.4061 47.5441 42.1191C46.7788 41.545 46.4507 40.5063 46.7651 39.6452C46.9838 39.0985 52.1775 33.8912 52.8472 33.5768C53.5032 33.2625 54.2959 33.3035 54.8153 33.6998Z" fill="white"/>
</svg>
