<svg width="75" height="72" viewBox="0 0 75 72" fill="none" xmlns="http://www.w3.org/2000/svg">
<path d="M8.22034 10.8305H3C1.89543 10.8305 1 11.7259 1 12.8305V69C1 70.1046 1.89543 71 3 71H50.7458C51.8503 71 52.7458 70.1046 52.7458 69V50.5424M45.0136 10.8305H50.7458C51.8503 10.8305 52.7458 11.7259 52.7458 12.8305V21.661" stroke="white" stroke-width="2"/>
<rect x="8.01654" y="5.81354" width="37.7119" height="8.83051" rx="4" stroke="white" stroke-width="2"/>
<rect x="18.8477" y="1" width="16.0508" height="5.22034" rx="2.61017" stroke="white" stroke-width="2"/>
<path d="M23.8638 24.288V23.8645C23.8638 23.3122 23.4161 22.8645 22.8638 22.8645H9.21973C8.66744 22.8645 8.21973 23.3122 8.21973 23.8645V37.5086C8.21973 38.0609 8.66744 38.5086 9.21973 38.5086H22.8638C23.4161 38.5086 23.8638 38.0609 23.8638 37.5086V33.695" stroke="white" stroke-width="2"/>
<path d="M17.7741 32.3586L13.7863 28.7057C13.5714 28.5089 13.28 28.3983 12.9761 28.3983C12.6722 28.3983 12.3807 28.5089 12.1659 28.7057C11.951 28.9026 11.8303 29.1695 11.8303 29.4479C11.8303 29.5857 11.8599 29.7222 11.9175 29.8496C11.9751 29.9769 12.0595 30.0926 12.1659 30.1901L16.9696 34.5904C17.4178 35.0009 18.1419 35.0009 18.5901 34.5904L30.7489 23.4527C30.9638 23.2559 31.0845 22.9889 31.0845 22.7106C31.0845 22.4322 30.9638 22.1653 30.7489 21.9684C30.534 21.7716 30.2426 21.661 29.9387 21.661C29.6348 21.661 29.3434 21.7716 29.1285 21.9684L17.7741 32.3586Z" fill="white"/>
<rect x="8.21973" y="43.322" width="15.6441" height="2.40678" rx="1.20339" fill="white"/>
<rect x="8.21973" y="50.5425" width="15.6441" height="2.40678" rx="1.20339" fill="white"/>
<rect x="8.21973" y="57.7627" width="15.6441" height="2.40678" rx="1.20339" fill="white"/>
<circle cx="50.1942" cy="36.2274" r="14.5662" stroke="white" stroke-width="2"/>
<path d="M38.9161 43.8743L29.2289 57.817L36.0145 57.8421L37.7028 63.7112L46.3842 50.199" stroke="white" stroke-width="2"/>
<path d="M55.7261 49.5552L64.2875 62.4767L66.3336 56.852L72.224 56.9973L62.9554 43.5893" stroke="white" stroke-width="2"/>
<circle cx="50.3911" cy="36.1516" r="9.88034" stroke="white" stroke-width="2"/>
<path d="M45.4941 36.6417L48.5314 39.7602L55.4341 32.6602" stroke="white" stroke-width="2" stroke-linecap="round" stroke-linejoin="round"/>
</svg>
