<svg width="74" height="74" viewBox="0 0 74 74" fill="none" xmlns="http://www.w3.org/2000/svg">
<path fill-rule="evenodd" clip-rule="evenodd" d="M56 67.5835C55.7085 67.765 55.4142 67.9425 55.1172 68.1158C50.0651 71.0637 44.2301 72.8165 38 72.9864C37.6678 72.9954 37.3344 73 37 73C36.6656 73 36.3322 72.9954 36 72.9864C16.9123 72.4658 1.5342 57.0877 1.01362 38C1.00456 37.6678 1 37.3344 1 37C1 36.6656 1.00456 36.3322 1.01362 36C1.54326 16.5801 17.4522 1 37 1C56.5478 1 72.4567 16.5801 72.9864 36C72.9954 36.3322 73 36.6656 73 37C73 37.3344 72.9954 37.6678 72.9864 38C72.7405 47.0145 69.1809 55.2016 63.4818 61.3871C62.4626 62.4932 61.3751 63.5353 60.2258 64.5067C58.8963 65.6304 57.4842 66.6595 56 67.5835ZM50.4796 60.6783L55.4126 65.588C56.6434 64.7935 57.8198 63.9216 58.9347 62.9792C60.0205 62.0615 61.048 61.0769 62.0109 60.0319C63.2741 58.6609 64.4259 57.186 65.4521 55.6215L59.6711 51.7675L60.7805 50.1034L66.5 53.9165C69.2079 49.2051 70.8186 43.7844 70.9856 38H63.7097V36H70.9856C70.8301 30.618 69.424 25.5496 67.0476 21.0751L37 39.3241V3C30.89 3 25.1565 4.61167 20.2013 7.43308L23.8454 11.9882L22.2836 13.2376L18.4794 8.48231C14.5233 11.0568 11.1363 14.4322 8.54815 18.3786L14.3289 22.2325L13.2195 23.8966L7.5003 20.0838C4.79278 24.7951 3.18147 30.2166 3.01442 36H10.2903V38H3.01442C3.18147 43.7834 4.79278 49.2048 7.5003 53.9162L13.2195 50.1034L14.3289 51.7675L8.54815 55.6214C11.1629 59.6084 14.5931 63.0126 18.6018 65.5969L23.5187 60.68L24.9329 62.0942L20.3666 66.6605C25.0117 69.2709 30.332 70.8219 36 70.9856V63.7097H38V70.9856C43.675 70.8218 48.9994 69.2684 53.6475 66.653L49.0688 62.0959L50.4796 60.6783Z" fill="white"/>
<path d="M55.1172 68.1158L55.3692 68.5476H55.3692L55.1172 68.1158ZM56 67.5835L56.2643 68.008L56 67.5835ZM38 72.9864L37.9864 72.4866H37.9864L38 72.9864ZM36 72.9864L36.0136 72.4866H36.0136L36 72.9864ZM1.01362 38L0.513807 38.0136L1.01362 38ZM1.01362 36L0.513807 35.9864L1.01362 36ZM72.9864 36L72.4866 36.0136V36.0136L72.9864 36ZM72.9864 38L72.4866 37.9864V37.9864L72.9864 38ZM63.4818 61.3871L63.8495 61.7259L63.4818 61.3871ZM60.2258 64.5067L60.5486 64.8886L60.2258 64.5067ZM55.4126 65.588L55.0599 65.9424L55.3454 66.2265L55.6838 66.0081L55.4126 65.588ZM50.4796 60.6783L50.8323 60.3239L50.478 59.9712L50.1252 60.3256L50.4796 60.6783ZM58.9347 62.9792L59.2575 63.3611L58.9347 62.9792ZM62.0109 60.0319L61.6432 59.6931L62.0109 60.0319ZM65.4521 55.6215L65.8702 55.8958L66.1424 55.4808L65.7294 55.2055L65.4521 55.6215ZM59.6711 51.7675L59.2551 51.4902L58.9777 51.9062L59.3938 52.1836L59.6711 51.7675ZM60.7805 50.1034L61.0579 49.6874L60.6418 49.4101L60.3645 49.8261L60.7805 50.1034ZM66.5 53.9165L66.2227 54.3325L66.6673 54.6289L66.9335 54.1656L66.5 53.9165ZM70.9856 38L71.4854 38.0144L71.5002 37.5H70.9856V38ZM63.7097 38H63.2097V38.5H63.7097V38ZM63.7097 36V35.5H63.2097V36H63.7097ZM70.9856 36V36.5H71.5002L71.4854 35.9856L70.9856 36ZM67.0476 21.0751L67.4892 20.8405L67.2407 20.3728L66.788 20.6477L67.0476 21.0751ZM37 39.3241H36.5V40.2128L37.2596 39.7514L37 39.3241ZM37 3H37.5V2.5H37V3ZM20.2013 7.43308L19.9539 6.99857L19.4451 7.28826L19.8108 7.74543L20.2013 7.43308ZM23.8454 11.9882L24.1577 12.3786L24.5482 12.0663L24.2358 11.6759L23.8454 11.9882ZM22.2836 13.2376L21.8932 13.5499L22.2056 13.9404L22.596 13.628L22.2836 13.2376ZM18.4794 8.48231L18.8699 8.16997L18.5867 7.81597L18.2067 8.06324L18.4794 8.48231ZM8.54815 18.3786L8.13005 18.1044L7.85791 18.5194L8.2708 18.7947L8.54815 18.3786ZM14.3289 22.2325L14.7449 22.5098L15.0223 22.0938L14.6062 21.8164L14.3289 22.2325ZM13.2195 23.8966L12.9421 24.3126L13.3582 24.5899L13.6355 24.1739L13.2195 23.8966ZM7.5003 20.0838L7.77765 19.6677L7.33303 19.3713L7.06678 19.8346L7.5003 20.0838ZM3.01442 36L2.51463 35.9856L2.49977 36.5H3.01442V36ZM10.2903 36H10.7903V35.5H10.2903V36ZM10.2903 38V38.5H10.7903V38H10.2903ZM3.01442 38V37.5H2.49977L2.51463 38.0144L3.01442 38ZM7.5003 53.9162L7.06678 54.1654L7.33303 54.6287L7.77765 54.3323L7.5003 53.9162ZM13.2195 50.1034L13.6355 49.8261L13.3582 49.4101L12.9421 49.6874L13.2195 50.1034ZM14.3289 51.7675L14.6062 52.1836L15.0223 51.9062L14.7449 51.4902L14.3289 51.7675ZM8.54815 55.6214L8.2708 55.2053L7.8579 55.4806L8.13004 55.8956L8.54815 55.6214ZM18.6018 65.5969L18.3308 66.0172L18.67 66.2358L18.9553 65.9505L18.6018 65.5969ZM23.5187 60.68L23.8723 60.3264L23.5187 59.9729L23.1651 60.3264L23.5187 60.68ZM24.9329 62.0942L25.2865 62.4478L25.64 62.0942L25.2865 61.7407L24.9329 62.0942ZM20.3666 66.6605L20.0131 66.3069L19.5468 66.7732L20.1217 67.0964L20.3666 66.6605ZM36 70.9856L35.9856 71.4854L36.5 71.5002V70.9856H36ZM36 63.7097V63.2097H35.5V63.7097H36ZM38 63.7097H38.5V63.2097H38V63.7097ZM38 70.9856H37.5V71.5002L38.0144 71.4854L38 70.9856ZM53.6475 66.653L53.8927 67.0888L54.4685 66.7647L54.0002 66.2986L53.6475 66.653ZM49.0688 62.0959L48.7144 61.7432L48.3617 62.0975L48.716 62.4503L49.0688 62.0959ZM55.3692 68.5476C55.6703 68.3719 55.9687 68.192 56.2643 68.008L55.7357 67.1591C55.4483 67.338 55.1581 67.513 54.8652 67.6839L55.3692 68.5476ZM38.0136 73.4862C44.3299 73.3139 50.2465 71.5367 55.3692 68.5476L54.8652 67.6839C49.8837 70.5907 44.1304 72.319 37.9864 72.4866L38.0136 73.4862ZM37 73.5C37.339 73.5 37.6769 73.4954 38.0136 73.4862L37.9864 72.4866C37.6587 72.4955 37.3299 72.5 37 72.5V73.5ZM35.9864 73.4862C36.3231 73.4954 36.661 73.5 37 73.5V72.5C36.6701 72.5 36.3413 72.4955 36.0136 72.4866L35.9864 73.4862ZM0.513807 38.0136C1.04163 57.3667 16.6333 72.9584 35.9864 73.4862L36.0136 72.4866C17.1914 71.9732 2.02678 56.8086 1.51344 37.9864L0.513807 38.0136ZM0.5 37C0.5 37.339 0.504622 37.6769 0.513807 38.0136L1.51344 37.9864C1.5045 37.6587 1.5 37.3299 1.5 37H0.5ZM0.513807 35.9864C0.504622 36.3231 0.5 36.661 0.5 37H1.5C1.5 36.6701 1.5045 36.3413 1.51343 36.0136L0.513807 35.9864ZM37 0.5C17.1806 0.5 1.05081 16.2965 0.513807 35.9864L1.51343 36.0136C2.03571 16.8637 17.7237 1.5 37 1.5V0.5ZM73.4862 35.9864C72.9492 16.2965 56.8194 0.5 37 0.5V1.5C56.2763 1.5 71.9643 16.8637 72.4866 36.0136L73.4862 35.9864ZM73.5 37C73.5 36.661 73.4954 36.3231 73.4862 35.9864L72.4866 36.0136C72.4955 36.3413 72.5 36.6701 72.5 37H73.5ZM73.4862 38.0136C73.4954 37.6769 73.5 37.339 73.5 37H72.5C72.5 37.3299 72.4955 37.6587 72.4866 37.9864L73.4862 38.0136ZM63.8495 61.7259C69.6274 55.4549 73.2369 47.1534 73.4862 38.0136L72.4866 37.9864C72.2441 46.8755 68.7344 54.9483 63.114 61.0483L63.8495 61.7259ZM60.5486 64.8886C61.7137 63.9038 62.8163 62.8473 63.8495 61.7259L63.114 61.0483C62.109 62.1391 61.0364 63.1669 59.903 64.1248L60.5486 64.8886ZM56.2643 68.008C57.7691 67.0711 59.2007 66.0278 60.5486 64.8886L59.903 64.1248C58.5919 65.233 57.1994 66.2479 55.7357 67.1591L56.2643 68.008ZM55.7653 65.2336L50.8323 60.3239L50.1269 61.0327L55.0599 65.9424L55.7653 65.2336ZM58.612 62.5974C57.5133 63.526 56.3542 64.3851 55.1414 65.1679L55.6838 66.0081C56.9327 65.2019 58.1262 64.3173 59.2575 63.3611L58.612 62.5974ZM61.6432 59.6931C60.6944 60.7229 59.6819 61.6931 58.612 62.5974L59.2575 63.3611C60.3591 62.43 61.4017 61.431 62.3786 60.3707L61.6432 59.6931ZM65.034 55.3473C64.0229 56.8888 62.888 58.3421 61.6432 59.6931L62.3786 60.3707C63.6603 58.9796 64.829 57.4832 65.8702 55.8958L65.034 55.3473ZM59.3938 52.1836L65.1747 56.0376L65.7294 55.2055L59.9485 51.3515L59.3938 52.1836ZM60.3645 49.8261L59.2551 51.4902L60.0871 52.0449L61.1965 50.3808L60.3645 49.8261ZM66.7774 53.5004L61.0579 49.6874L60.5032 50.5195L66.2227 54.3325L66.7774 53.5004ZM70.4858 37.9856C70.3213 43.6854 68.7343 49.0257 66.0665 53.6673L66.9335 54.1656C69.6815 49.3845 71.316 43.8834 71.4854 38.0144L70.4858 37.9856ZM63.7097 38.5H70.9856V37.5H63.7097V38.5ZM63.2097 36V38H64.2097V36H63.2097ZM70.9856 35.5H63.7097V36.5H70.9856V35.5ZM66.606 21.3096C68.9472 25.7178 70.3326 30.7111 70.4858 36.0144L71.4854 35.9856C71.3276 30.5249 69.9007 25.3813 67.4892 20.8405L66.606 21.3096ZM66.788 20.6477L36.7404 38.8967L37.2596 39.7514L67.3071 21.5024L66.788 20.6477ZM37.5 39.3241V3H36.5V39.3241H37.5ZM20.4487 7.86758C25.3305 5.08797 30.979 3.5 37 3.5V2.5C30.801 2.5 24.9825 4.13537 19.9539 6.99857L20.4487 7.86758ZM24.2358 11.6759L20.5917 7.12073L19.8108 7.74543L23.455 12.3006L24.2358 11.6759ZM22.596 13.628L24.1577 12.3786L23.533 11.5978L21.9713 12.8472L22.596 13.628ZM18.089 8.79466L21.8932 13.5499L22.6741 12.9253L18.8699 8.16997L18.089 8.79466ZM8.96626 18.6528C11.5165 14.7643 14.854 11.4382 18.7521 8.90139L18.2067 8.06324C14.1926 10.6755 10.7561 14.1002 8.13005 18.1044L8.96626 18.6528ZM14.6062 21.8164L8.8255 17.9626L8.2708 18.7947L14.0515 22.6485L14.6062 21.8164ZM13.6355 24.1739L14.7449 22.5098L13.9129 21.9551L12.8035 23.6192L13.6355 24.1739ZM7.22295 20.4998L12.9421 24.3126L13.4968 23.4805L7.77765 19.6677L7.22295 20.4998ZM3.51422 36.0144C3.67882 30.3156 5.26636 24.9746 7.93381 20.3329L7.06678 19.8346C4.31921 24.6157 2.68412 30.1175 2.51463 35.9856L3.51422 36.0144ZM10.2903 35.5H3.01442V36.5H10.2903V35.5ZM10.7903 38V36H9.79032V38H10.7903ZM3.01442 38.5H10.2903V37.5H3.01442V38.5ZM7.93381 53.6671C5.26635 49.0254 3.67882 43.6844 3.51422 37.9856L2.51463 38.0144C2.68412 43.8825 4.31921 49.3843 7.06678 54.1654L7.93381 53.6671ZM12.9421 49.6874L7.22295 53.5002L7.77765 54.3323L13.4968 50.5195L12.9421 49.6874ZM14.7449 51.4902L13.6355 49.8261L12.8035 50.3808L13.9129 52.0449L14.7449 51.4902ZM8.8255 56.0374L14.6062 52.1836L14.0515 51.3515L8.2708 55.2053L8.8255 56.0374ZM18.8727 65.1767C14.9228 62.6302 11.5427 59.2758 8.96626 55.3472L8.13004 55.8956C10.7831 59.941 14.2635 63.395 18.3308 66.0172L18.8727 65.1767ZM23.1651 60.3264L18.2482 65.2434L18.9553 65.9505L23.8723 61.0335L23.1651 60.3264ZM25.2865 61.7407L23.8723 60.3264L23.1651 61.0335L24.5794 62.4478L25.2865 61.7407ZM20.7202 67.014L25.2865 62.4478L24.5794 61.7407L20.0131 66.3069L20.7202 67.014ZM36.0144 70.4858C30.4293 70.3245 25.1879 68.7964 20.6116 66.2246L20.1217 67.0964C24.8354 69.7455 30.2346 71.3193 35.9856 71.4854L36.0144 70.4858ZM35.5 63.7097V70.9856H36.5V63.7097H35.5ZM38 63.2097H36V64.2097H38V63.2097ZM38.5 70.9856V63.7097H37.5V70.9856H38.5ZM53.4023 66.2172C48.8231 68.7939 43.5776 70.3244 37.9856 70.4858L38.0144 71.4854C43.7724 71.3192 49.1758 69.7429 53.8927 67.0888L53.4023 66.2172ZM48.716 62.4503L53.2948 67.0074L54.0002 66.2986L49.4215 61.7415L48.716 62.4503ZM50.1252 60.3256L48.7144 61.7432L49.4231 62.4486L50.834 61.031L50.1252 60.3256Z" fill="white"/>
</svg>
