<svg width="292" height="287" viewBox="0 0 292 287" fill="none" xmlns="http://www.w3.org/2000/svg">
<path d="M213.91 0.159363C182.632 2.39578 156.124 24.4642 148.461 54.5905C146.751 61.4642 146.224 65.7398 146.224 73.0083C146.257 79.9478 146.849 84.5851 148.625 91.3931C150.467 98.6287 154.118 106.719 158.327 113.067C160.005 115.566 160.202 116.027 159.775 116.422C159.511 116.685 154.743 120.73 149.119 125.466L138.923 134.017L102.022 96.9514L65.0875 59.8527V50.4794C65.0875 41.3362 64.8901 37.7185 64.4626 37.258C64.1666 36.962 21.8057 11.0456 21.2795 10.8482C20.8519 10.6838 0.131914 31.5354 0.000358154 32.226C-0.0325307 32.3905 2.20391 36.1727 4.96658 40.6127C14.9648 56.7283 20.819 66.2003 23.4501 70.3771L26.147 74.6527L37.6581 74.7514L49.1364 74.8171L85.5772 111.258C105.607 131.287 121.985 147.765 121.985 147.896C121.985 148.094 106.823 160.822 55.5497 203.774C47.4919 210.517 36.8359 219.43 31.8697 223.606C26.9035 227.783 20.4572 233.177 17.563 235.578C11.5115 240.61 9.96569 242.353 8.18969 246.004C4.73636 253.174 5.26258 261.626 9.53814 268.039C10.459 269.421 13.5177 272.71 17.1355 276.294C22.6279 281.721 23.4172 282.346 25.9497 283.596C29.7319 285.47 32.3301 286.062 36.3097 286.062C39.6644 286.062 43.4137 285.306 45.7817 284.122C49.7612 282.149 50.4848 281.425 83.9328 244.853C102.055 225.054 120.143 205.287 124.123 200.946C128.103 196.605 135.207 188.843 139.877 183.745L148.395 174.405L155.236 181.246L162.077 188.086L157.374 192.888C153.328 196.999 152.572 197.92 151.914 199.63C150.599 203.117 151.026 207.228 152.967 210.089C153.394 210.714 169.773 227.422 189.375 247.286C219.797 278.038 225.322 283.464 226.868 284.254C228.512 285.043 229.071 285.142 231.999 285.142C234.926 285.142 235.452 285.043 236.932 284.254C238.116 283.629 243.378 278.564 256.04 265.836C275.774 246.037 274.754 247.319 274.721 242.189C274.688 237.42 275.872 238.768 246.634 209.267C232.426 194.927 216.311 178.647 210.818 173.056C199.044 161.183 199.011 161.15 194.012 161.15C189.605 161.15 188.552 161.775 182.435 167.827L177.567 172.629L176.844 171.905C174.607 169.833 163.59 158.618 163.491 158.355C163.392 158.125 177.107 142.864 182.468 137.24L183.323 136.319L186.151 137.799C192.4 141.022 199.932 143.489 208.154 144.936C213.679 145.89 224.566 145.989 230.025 145.068C240.714 143.325 250.548 139.608 258.803 134.214C286.627 116.027 298.631 81.9211 288.37 50.2491C287.449 47.4536 286.594 45.2171 286.43 45.2829C286.265 45.3487 275.609 55.7416 262.75 68.4038C249.89 81.066 239.267 91.426 239.135 91.4589C239.004 91.4589 230.058 82.5789 219.238 71.6927L199.537 51.8936L212.495 39.0998C240.221 11.6705 246.305 5.6189 246.305 5.3558C246.305 4.96112 237.294 2.16559 233.742 1.50781C226.769 0.159363 220.126 -0.268188 213.91 0.159363ZM35.9479 249.095C38.3488 250.246 39.9604 251.957 41.1444 254.588C42.1968 256.89 42.1968 261.1 41.1444 263.402C39.9275 266.033 38.3488 267.71 35.8821 268.927C33.8759 269.914 33.4155 270.013 30.7186 270.013C28.1204 270.013 27.5284 269.881 25.851 269.059C22.1675 267.184 20.0297 263.928 19.7666 259.784C19.4377 254.489 22.1675 250.279 27.1995 248.372C29.6332 247.451 33.2181 247.747 35.9479 249.095Z" fill="#F4F4F4"/>
</svg>
