<svg width="19" height="18" viewBox="0 0 19 18" fill="none" xmlns="http://www.w3.org/2000/svg">
<g clip-path="url(#clip0_1_656)">
<path d="M14.1868 10.0575C13.5973 11.2522 12.7985 12.4425 11.9818 13.5113C11.2061 14.5181 10.3777 15.4832 9.5 16.4025C8.62229 15.4832 7.79388 14.5181 7.01825 13.5113C6.2015 12.4425 5.40275 11.2522 4.81325 10.0575C4.217 8.85037 3.875 7.71975 3.875 6.75C3.875 5.25816 4.46763 3.82742 5.52252 2.77252C6.57742 1.71763 8.00816 1.125 9.5 1.125C10.9918 1.125 12.4226 1.71763 13.4775 2.77252C14.5324 3.82742 15.125 5.25816 15.125 6.75C15.125 7.71975 14.7819 8.85037 14.1868 10.0575ZM9.5 18C9.5 18 16.25 11.6033 16.25 6.75C16.25 4.95979 15.5388 3.2429 14.273 1.97703C13.0071 0.711159 11.2902 0 9.5 0C7.70979 0 5.9929 0.711159 4.72703 1.97703C3.46116 3.2429 2.75 4.95979 2.75 6.75C2.75 11.6033 9.5 18 9.5 18Z" fill="white"/>
<path d="M9.5 9C8.90326 9 8.33097 8.76295 7.90901 8.34099C7.48705 7.91903 7.25 7.34674 7.25 6.75C7.25 6.15326 7.48705 5.58097 7.90901 5.15901C8.33097 4.73705 8.90326 4.5 9.5 4.5C10.0967 4.5 10.669 4.73705 11.091 5.15901C11.5129 5.58097 11.75 6.15326 11.75 6.75C11.75 7.34674 11.5129 7.91903 11.091 8.34099C10.669 8.76295 10.0967 9 9.5 9ZM9.5 10.125C10.3951 10.125 11.2536 9.76942 11.8865 9.13649C12.5194 8.50355 12.875 7.64511 12.875 6.75C12.875 5.85489 12.5194 4.99645 11.8865 4.36351C11.2536 3.73058 10.3951 3.375 9.5 3.375C8.60489 3.375 7.74645 3.73058 7.11351 4.36351C6.48058 4.99645 6.125 5.85489 6.125 6.75C6.125 7.64511 6.48058 8.50355 7.11351 9.13649C7.74645 9.76942 8.60489 10.125 9.5 10.125Z" fill="white"/>
</g>
<defs>
<clipPath id="clip0_1_656">
<rect width="18" height="18" fill="white" transform="translate(0.5)"/>
</clipPath>
</defs>
</svg>
