<svg width="19" height="18" viewBox="0 0 19 18" fill="none" xmlns="http://www.w3.org/2000/svg">
<g clip-path="url(#clip0_1_648)">
<path d="M4.35686 9.00004V5.61862C4.36691 4.95394 4.508 4.29778 4.77207 3.68773C5.03614 3.07768 5.41799 2.52574 5.89573 2.06351C6.37348 1.60129 6.93774 1.23788 7.55618 0.994109C8.17462 0.750334 8.83508 0.630986 9.49972 0.642902C10.1644 0.630986 10.8248 0.750334 11.4433 0.994109C12.0617 1.23788 12.626 1.60129 13.1037 2.06351C13.5815 2.52574 13.9633 3.07768 14.2274 3.68773C14.4914 4.29778 14.6325 4.95394 14.6426 5.61862V9.00004M12.0711 15.75C12.7531 15.75 13.4072 15.4791 13.8894 14.9969C14.3717 14.5147 14.6426 13.8606 14.6426 13.1786V10.2858M12.0711 15.75C12.0711 16.1763 11.9018 16.5851 11.6004 16.8865C11.299 17.1879 10.8902 17.3572 10.464 17.3572H8.53544C8.10919 17.3572 7.70041 17.1879 7.39901 16.8865C7.09762 16.5851 6.92829 16.1763 6.92829 15.75C6.92829 15.3238 7.09762 14.915 7.39901 14.6136C7.70041 14.3122 8.10919 14.1429 8.53544 14.1429H10.464C10.8902 14.1429 11.299 14.3122 11.6004 14.6136C11.9018 14.915 12.0711 15.3238 12.0711 15.75ZM2.42829 7.07147H3.71401C3.8845 7.07147 4.04802 7.1392 4.16858 7.25976C4.28913 7.38032 4.35686 7.54383 4.35686 7.71433V11.5715C4.35686 11.742 4.28913 11.9055 4.16858 12.026C4.04802 12.1466 3.8845 12.2143 3.71401 12.2143H2.42829C2.0873 12.2143 1.76027 12.0789 1.51916 11.8378C1.27804 11.5966 1.14258 11.2696 1.14258 10.9286V8.35719C1.14258 8.01619 1.27804 7.68917 1.51916 7.44805C1.76027 7.20693 2.0873 7.07147 2.42829 7.07147ZM16.5711 12.2143H15.2854C15.1149 12.2143 14.9514 12.1466 14.8309 12.026C14.7103 11.9055 14.6426 11.742 14.6426 11.5715V7.71433C14.6426 7.54383 14.7103 7.38032 14.8309 7.25976C14.9514 7.1392 15.1149 7.07147 15.2854 7.07147H16.5711C16.9121 7.07147 17.2392 7.20693 17.4803 7.44805C17.7214 7.68917 17.8569 8.01619 17.8569 8.35719V10.9286C17.8569 11.2696 17.7214 11.5966 17.4803 11.8378C17.2392 12.0789 16.9121 12.2143 16.5711 12.2143Z" stroke="white" stroke-linecap="round" stroke-linejoin="round"/>
</g>
<defs>
<clipPath id="clip0_1_648">
<rect width="18" height="18" fill="white" transform="translate(0.5)"/>
</clipPath>
</defs>
</svg>
