<svg width="36" height="36" viewBox="0 0 36 36" fill="none" xmlns="http://www.w3.org/2000/svg">
<path fill-rule="evenodd" clip-rule="evenodd" d="M12.75 28.344V24H9C8.60218 24 8.22064 23.842 7.93934 23.5607C7.65804 23.2794 7.5 22.8978 7.5 22.5V10.5C7.5 10.1022 7.65804 9.72064 7.93934 9.43934C8.22064 9.15804 8.60218 9 9 9H27C27.3978 9 27.7794 9.15804 28.0607 9.43934C28.342 9.72064 28.5 10.1022 28.5 10.5V22.5C28.5 22.8978 28.342 23.2794 28.0607 23.5607C27.7794 23.842 27.3978 24 27 24H18L13.3905 28.6095C13.3381 28.6621 13.2712 28.6979 13.1983 28.7124C13.1255 28.727 13.05 28.7195 12.9814 28.6911C12.9128 28.6626 12.8542 28.6145 12.813 28.5527C12.7718 28.4909 12.7499 28.4183 12.75 28.344ZM12 18.75C12 18.5511 12.079 18.3603 12.2197 18.2197C12.3603 18.079 12.5511 18 12.75 18H23.25C23.4489 18 23.6397 18.079 23.7803 18.2197C23.921 18.3603 24 18.5511 24 18.75C24 18.9489 23.921 19.1397 23.7803 19.2803C23.6397 19.421 23.4489 19.5 23.25 19.5H12.75C12.5511 19.5 12.3603 19.421 12.2197 19.2803C12.079 19.1397 12 18.9489 12 18.75ZM12.75 13.5C12.5511 13.5 12.3603 13.579 12.2197 13.7197C12.079 13.8603 12 14.0511 12 14.25C12 14.4489 12.079 14.6397 12.2197 14.7803C12.3603 14.921 12.5511 15 12.75 15H23.25C23.4489 15 23.6397 14.921 23.7803 14.7803C23.921 14.6397 24 14.4489 24 14.25C24 14.0511 23.921 13.8603 23.7803 13.7197C23.6397 13.579 23.4489 13.5 23.25 13.5H12.75Z" fill="black"/>
</svg>
